<svg xmlns="http://www.w3.org/2000/svg" xmlns:xlink="http://www.w3.org/1999/xlink" width="200" height="200" viewBox="0 0 200 200">
    <defs>
        <path id="4lt5yrqjma" d="M0 0.125L144.294 0.125 144.294 63.382 0 63.382z"/>
    </defs>
    <g fill="none" fill-rule="evenodd">
        <g>
            <g>
                <g>
                    <path fill="#FEFEFE" d="M29.319 61.28c0-3.324-2.109-5.325-4.896-5.325-2.788 0-4.897 2.001-4.897 5.325 0 3.323 2.109 5.324 4.897 5.324 2.787 0 4.896-2 4.896-5.324m5.646 0c0 6.04-4.18 9.9-9.578 9.9-2.572 0-4.645-.823-6.039-2.503v2.217h-5.325V44.375h5.574v9.328c1.43-1.572 3.396-2.323 5.79-2.323 5.397 0 9.578 3.86 9.578 9.9M52.725 61.28c0-3.324-2.108-5.325-4.895-5.325-2.789 0-4.932 2.001-4.932 5.325 0 3.323 2.143 5.324 4.932 5.324 2.787 0 4.895-2 4.895-5.324m-15.474 0c0-5.79 4.467-9.9 10.579-9.9 6.11 0 10.542 4.11 10.542 9.9s-4.431 9.9-10.542 9.9c-6.112 0-10.58-4.11-10.58-9.9M81.743 59.886v11.008h-5.575v-10.15c0-3.11-1.43-4.54-3.896-4.54-2.68 0-4.61 1.645-4.61 5.183v9.507h-5.574V51.667h5.324v2.251c1.501-1.644 3.753-2.538 6.361-2.538 4.54 0 7.97 2.644 7.97 8.506M101.326 60.672c0-2.824-2.108-4.717-5.04-4.717-2.93 0-5.073 1.893-5.073 4.717s2.143 4.717 5.074 4.717c2.93 0 5.04-1.893 5.04-4.717zm5.504-9.006v16.01c0 7.149-3.86 10.436-10.793 10.436-3.646 0-7.184-.893-9.435-2.644l2.216-4.002c1.644 1.321 4.324 2.179 6.79 2.179 3.931 0 5.646-1.787 5.646-5.254v-.822c-1.464 1.609-3.574 2.396-6.075 2.396-5.326 0-9.613-3.682-9.613-9.293 0-5.61 4.287-9.291 9.613-9.291 2.68 0 4.896.893 6.362 2.751v-2.466h5.289zM126.055 61.28c0-3.324-2.108-5.325-4.896-5.325-2.787 0-4.932 2.001-4.932 5.325 0 3.323 2.145 5.324 4.932 5.324 2.788 0 4.896-2 4.896-5.324m-15.474 0c0-5.79 4.466-9.9 10.578-9.9 6.111 0 10.543 4.11 10.543 9.9s-4.432 9.9-10.543 9.9c-6.112 0-10.578-4.11-10.578-9.9" transform="translate(-88 -107) translate(88 107) translate(28 61)"/>
                    <g transform="translate(-88 -107) translate(88 107) translate(28 61) translate(0 .918)">
                        <mask id="350ke8tdub" fill="#fff">
                            <use xlink:href="#4lt5yrqjma"/>
                        </mask>
                        <path fill="#FEFEFE" d="M137.205 63.382c-1.086 0-1.968-.88-1.97-1.965-.002-1.087.879-1.97 1.966-1.973.882 0 1.597-.641 1.944-1.023.81-.889 1.291-2.145 1.2-3.123l-4.31-46.629c-.24-2.583-2.701-4.606-5.608-4.606H53.64c-4.284 0-8.566.942-12.382 2.722l-13.724 6.402L8.018 34.251c-2.67 3.335-4.08 7.277-4.08 11.406v11.632c0 1.188 1.127 2.155 2.513 2.155 1.088 0 1.969.882 1.969 1.97 0 1.087-.88 1.968-1.969 1.968-3.557 0-6.45-2.733-6.45-6.093V45.657c0-4.986 1.773-9.934 4.993-13.928l.089-.103L25.17 9.946l14.423-6.73C43.927 1.195 48.783.126 53.64.126h76.787c5.001 0 9.098 3.517 9.529 8.182l4.311 46.628c.192 2.077-.654 4.427-2.21 6.136-1.353 1.486-3.075 2.308-4.85 2.311h-.002z" mask="url(#350ke8tdub)"/>
                    </g>
                </g>
            </g>
        </g>
    </g>
</svg>
